# xmcd
#
# Track frame offsets:
#	150
#	17829
#	28815
#	44535
#	59709
#	74860
#	89175
#	112500
#	126620
#	138750
#	157235
#	166164
#	183262
#	197347
#
# Disc length: 2872 seconds
#
# Revision: 1
# Processed by: cddbd v1.4PL0 Copyright (c) Steve Scherf et al.
# Submitted via: audiograbber 1.81.03
#
DISCID=d00b360e
DTITLE=T E X - Boogieland
DYEAR=1994
DGENRE=Blues
TTITLE0=I'm Satisfied
TTITLE1=Humble Stumble
TTITLE2=Goin' Home Again
TTITLE3=See See
TTITLE4=Without You
TTITLE5=Rockomobile Jive
TTITLE6=Booze Bottom Blues
TTITLE7=I'm Not In Love With You
TTITLE8=Choo Choo Train
TTITLE9=Desire
TTITLE10=Boogie Jam Jam
TTITLE11=L S D
TTITLE12=Mojo Shuffle
TTITLE13=The Call Me Alligator
EXTD=
EXTT0=
EXTT1=
EXTT2=
EXTT3=
EXTT4=
EXTT5=
EXTT6=
EXTT7=
EXTT8=
EXTT9=
EXTT10=
EXTT11=
EXTT12=
EXTT13=
PLAYORDER=
